# xmcd
#
# Track frame offsets:
#	150
#	15626
#	30875
#	46732
#	62674
#	76108
#	91846
#	109119
#	125025
#	140292
#	154891
#
# Disc length: 2284 seconds
#
# Revision: 0
# Processed by: cddbd v1.5.2PL0 Copyright (c) Steve Scherf et al.
# Submitted via: dBpowerAMP V4.0
#
DISCID=7b08ea0b
DTITLE=Mihkel Mattisen - Lihtsalt oma teed
DYEAR=2005
DGENRE=Pop
TTITLE0=Lihtsalt oma teed
TTITLE1=Mis peab tulema, see peab tulema
TTITLE2=Nii sügavalt langen
TTITLE3=Põgenen siit
TTITLE4=Sa elad veel
TTITLE5=Tagasi tuhat korda
TTITLE6=Make-Up
TTITLE7=Kõik on selge
TTITLE8=Mõned sõnad veel
TTITLE9=Kas sa ei kuula
TTITLE10=Klaver ja mina
EXTD=
EXTT0=
EXTT1=
EXTT2=
EXTT3=
EXTT4=
EXTT5=
EXTT6=
EXTT7=
EXTT8=
EXTT9=
EXTT10=
PLAYORDER=
